<?xml version="1.0" encoding="UTF-8" standalone="no"?>
<!DOCTYPE svg PUBLIC "-//W3C//DTD SVG 1.1//EN"
 "http://www.w3.org/Graphics/SVG/1.1/DTD/svg11.dtd">
<!-- Generated by graphviz version 12.2.0 (20241103.1931)
 -->
<!-- Title: root Pages: 1 -->
<svg width="682pt" height="364pt"
 viewBox="0.00 0.00 682.43 364.00" xmlns="http://www.w3.org/2000/svg" xmlns:xlink="http://www.w3.org/1999/xlink">
<g id="graph0" class="graph" transform="scale(1 1) rotate(0) translate(4 360)">
<title>root</title>
<polygon fill="white" stroke="none" points="-4,4 -4,-360 678.43,-360 678.43,4 -4,4"/>
<g id="clust1" class="cluster">
<title>cluster_curriculum</title>
<polygon fill="none" stroke="white" points="8,-261 8,-348 174,-348 174,-261 8,-261"/>
<text text-anchor="middle" x="91" y="-321.2" font-family="Times New Roman,serif" font-size="24.00">My Curriculum</text>
</g>
<g id="clust2" class="cluster">
<title>cluster_TriangleStage</title>
<polygon fill="none" stroke="black" points="182,-8 182,-337.5 662,-337.5 662,-8 182,-8"/>
<text text-anchor="middle" x="422" y="-320.2" font-family="Times New Roman,serif" font-size="14.00">Triangle Stage</text>
</g>
<!-- 0 -->
<g id="node1" class="node">
<title>0</title>
<polygon fill="lightgrey" stroke="black" points="138.75,-305 43.25,-305 43.25,-269 138.75,-269 138.75,-305"/>
<text text-anchor="middle" x="91" y="-281.95" font-family="Times New Roman,serif" font-size="14.00">Triangle Stage</text>
</g>
<!-- 0_gv1 -->
<g id="node2" class="node">
<title>0_gv1</title>
<polygon fill="#ffea00" stroke="black" points="406.12,-305 261.88,-305 261.88,-269 406.12,-269 406.12,-305"/>
<text text-anchor="middle" x="334" y="-282.73" font-family="Arial" font-size="12.00">__main__.policy_1_rule</text>
</g>
<!-- 1 -->
<g id="node3" class="node">
<title>1</title>
<polygon fill="lightblue" stroke="black" points="494.12,-178.5 349.88,-178.5 349.88,-142.5 494.12,-142.5 494.12,-178.5"/>
<text text-anchor="middle" x="422" y="-156.22" font-family="Arial" font-size="12.00">__main__.policy_2_rule</text>
</g>
<!-- 0_gv1&#45;&gt;1 -->
<g id="edge1" class="edge">
<title>0_gv1&#45;&gt;1</title>
<path fill="none" stroke="black" d="M293.65,-268.59C268.87,-255.35 244.48,-235.97 259.25,-215.5 269.4,-201.44 303.99,-189 338.69,-179.61"/>
<polygon fill="black" stroke="black" points="339.18,-183.1 347.97,-177.18 337.41,-176.33 339.18,-183.1"/>
<text text-anchor="middle" x="321.12" y="-218.7" font-family="Times New Roman,serif" font-size="14.00">(1) __main__.m1_rule</text>
</g>
<!-- 2 -->
<g id="node4" class="node">
<title>2</title>
<polygon fill="lightblue" stroke="black" points="406.12,-52 261.88,-52 261.88,-16 406.12,-16 406.12,-52"/>
<text text-anchor="middle" x="334" y="-29.73" font-family="Arial" font-size="12.00">__main__.policy_3_rule</text>
</g>
<!-- 0_gv1&#45;&gt;2 -->
<g id="edge2" class="edge">
<title>0_gv1&#45;&gt;2</title>
<path fill="none" stroke="black" d="M261.44,-276.18C233.43,-267.92 208,-252.72 208,-224.75 208,-224.75 208,-224.75 208,-96.25 208,-71.88 227.29,-57.21 250.78,-48.37"/>
<polygon fill="black" stroke="black" points="251.62,-51.78 260,-45.3 249.41,-45.14 251.62,-51.78"/>
<text text-anchor="middle" x="269.88" y="-155.45" font-family="Times New Roman,serif" font-size="14.00">(2) __main__.m2_rule</text>
</g>
<!-- 1&#45;&gt;0_gv1 -->
<g id="edge3" class="edge">
<title>1&#45;&gt;0_gv1</title>
<path fill="none" stroke="black" d="M413.76,-178.98C406.5,-193.67 395.21,-214.94 383,-232 375.93,-241.88 367.27,-251.95 359.21,-260.67"/>
<polygon fill="black" stroke="black" points="356.8,-258.12 352.47,-267.78 361.89,-262.93 356.8,-258.12"/>
<text text-anchor="middle" x="455.65" y="-218.7" font-family="Times New Roman,serif" font-size="14.00">(2) __main__.m2_rule</text>
</g>
<!-- 1&#45;&gt;2 -->
<g id="edge4" class="edge">
<title>1&#45;&gt;2</title>
<path fill="none" stroke="black" d="M349.43,-144.2C311.41,-134.55 270.44,-121.01 259.25,-105.5 246.44,-87.75 263.08,-70.82 283.89,-58"/>
<polygon fill="black" stroke="black" points="285.4,-61.17 292.34,-53.16 281.92,-55.09 285.4,-61.17"/>
<text text-anchor="middle" x="321.12" y="-92.2" font-family="Times New Roman,serif" font-size="14.00">(1) __main__.m1_rule</text>
</g>
<!-- 2&#45;&gt;0_gv1 -->
<g id="edge5" class="edge">
<title>2&#45;&gt;0_gv1</title>
<path fill="none" stroke="black" d="M406.51,-46.62C453.21,-55.75 507.75,-70.08 522,-89 560.24,-139.77 560.24,-181.23 522,-232 508.86,-249.44 461.48,-262.99 417.58,-272.15"/>
<polygon fill="black" stroke="black" points="417.11,-268.67 408,-274.08 418.49,-275.53 417.11,-268.67"/>
<text text-anchor="middle" x="612.55" y="-155.45" font-family="Times New Roman,serif" font-size="14.00">(1) __main__.m1_rule</text>
</g>
<!-- 2&#45;&gt;1 -->
<g id="edge6" class="edge">
<title>2&#45;&gt;1</title>
<path fill="none" stroke="black" d="M351.43,-52.12C361.32,-62.32 373.57,-75.82 383,-89 392.63,-102.46 401.7,-118.55 408.66,-131.95"/>
<polygon fill="black" stroke="black" points="405.43,-133.33 413.07,-140.67 411.68,-130.17 405.43,-133.33"/>
<text text-anchor="middle" x="455.65" y="-92.2" font-family="Times New Roman,serif" font-size="14.00">(2) __main__.m2_rule</text>
</g>
</g>
</svg>
