<?xml version="1.0" encoding="UTF-8" standalone="no"?>
<!DOCTYPE svg PUBLIC "-//W3C//DTD SVG 1.1//EN"
 "http://www.w3.org/Graphics/SVG/1.1/DTD/svg11.dtd">
<!-- Generated by graphviz version 12.2.0 (20241103.1931)
 -->
<!-- Title: root Pages: 1 -->
<svg width="492pt" height="399pt"
 viewBox="0.00 0.00 492.27 399.00" xmlns="http://www.w3.org/2000/svg" xmlns:xlink="http://www.w3.org/1999/xlink">
<g id="graph0" class="graph" transform="scale(1 1) rotate(0) translate(4 395)">
<title>root</title>
<polygon fill="white" stroke="none" points="-4,4 -4,-395 488.27,-395 488.27,4 -4,4"/>
<text text-anchor="middle" x="242.14" y="-8.2" font-family="Times New Roman,serif" font-size="24.00">My Curriculum</text>
<g id="clust1" class="cluster">
<title>cluster_curriculum</title>
<polygon fill="none" stroke="white" points="8,-43 8,-383 400,-383 400,-43 8,-43"/>
<text text-anchor="middle" x="204" y="-356.2" font-family="Times New Roman,serif" font-size="24.00">My Curriculum</text>
</g>
<!-- 0 -->
<g id="node1" class="node">
<title>0</title>
<polygon fill="lightgrey" stroke="black" points="167.25,-340 110.75,-340 110.75,-304 167.25,-304 167.25,-340"/>
<text text-anchor="middle" x="139" y="-316.95" font-family="Times New Roman,serif" font-size="14.00">Stage 1</text>
</g>
<!-- 1 -->
<g id="node2" class="node">
<title>1</title>
<polygon fill="lightgrey" stroke="black" points="232.25,-213.5 175.75,-213.5 175.75,-177.5 232.25,-177.5 232.25,-213.5"/>
<text text-anchor="middle" x="204" y="-190.45" font-family="Times New Roman,serif" font-size="14.00">Stage 2</text>
</g>
<!-- 0&#45;&gt;1 -->
<g id="edge1" class="edge">
<title>0&#45;&gt;1</title>
<path fill="none" stroke="black" d="M110.55,-307.32C86.68,-293.91 58.64,-272.34 73.25,-250.5 73.95,-249.46 126.87,-227.81 165.16,-212.24"/>
<polygon fill="black" stroke="black" points="166.17,-215.61 174.11,-208.61 163.53,-209.13 166.17,-215.61"/>
<text text-anchor="middle" x="135.12" y="-253.7" font-family="Times New Roman,serif" font-size="14.00">(1) __main__.m1_rule</text>
</g>
<!-- 2 -->
<g id="node3" class="node">
<title>2</title>
<polygon fill="lightgrey" stroke="black" points="170.25,-87 113.75,-87 113.75,-51 170.25,-51 170.25,-87"/>
<text text-anchor="middle" x="142" y="-63.95" font-family="Times New Roman,serif" font-size="14.00">Stage 3</text>
</g>
<!-- 0&#45;&gt;2 -->
<g id="edge2" class="edge">
<title>0&#45;&gt;2</title>
<path fill="none" stroke="black" d="M110.49,-308.66C99.22,-302.87 86.67,-295.2 77,-286 40.42,-251.18 32.39,-226.82 43.25,-177.5 51.02,-142.22 53.83,-129.91 80,-105 86.87,-98.46 95.2,-92.69 103.49,-87.82"/>
<polygon fill="black" stroke="black" points="105.08,-90.95 112.16,-83.07 101.71,-84.81 105.08,-90.95"/>
<text text-anchor="middle" x="105.12" y="-190.45" font-family="Times New Roman,serif" font-size="14.00">(2) __main__.m2_rule</text>
</g>
<!-- 1&#45;&gt;0 -->
<g id="edge3" class="edge">
<title>1&#45;&gt;0</title>
<path fill="none" stroke="black" d="M205.59,-213.95C206.2,-228.82 205.25,-250.36 197,-267 191.54,-278.02 182.81,-287.93 173.78,-296.17"/>
<polygon fill="black" stroke="black" points="171.62,-293.4 166.26,-302.54 176.15,-298.74 171.62,-293.4"/>
<text text-anchor="middle" x="264.5" y="-253.7" font-family="Times New Roman,serif" font-size="14.00">(2) __main__.m2_rule</text>
</g>
<!-- 1&#45;&gt;2 -->
<g id="edge4" class="edge">
<title>1&#45;&gt;2</title>
<path fill="none" stroke="black" d="M175.43,-182.88C138.23,-167.68 77.72,-142.72 76.25,-140.5 63.66,-121.51 83.06,-102.78 103.98,-89.4"/>
<polygon fill="black" stroke="black" points="105.51,-92.56 112.29,-84.43 101.91,-86.56 105.51,-92.56"/>
<text text-anchor="middle" x="138.12" y="-127.2" font-family="Times New Roman,serif" font-size="14.00">(1) __main__.m1_rule</text>
</g>
<!-- 2&#45;&gt;0 -->
<g id="edge5" class="edge">
<title>2&#45;&gt;0</title>
<path fill="none" stroke="black" d="M170.75,-73.88C219.11,-81.06 313.41,-98.1 333,-124 371.35,-174.7 368.95,-216.76 330,-267 311.54,-290.81 229.17,-307.29 178.82,-315.34"/>
<polygon fill="black" stroke="black" points="178.52,-311.85 169.18,-316.84 179.6,-318.76 178.52,-311.85"/>
<text text-anchor="middle" x="422.4" y="-190.45" font-family="Times New Roman,serif" font-size="14.00">(1) __main__.m1_rule</text>
</g>
<!-- 2&#45;&gt;1 -->
<g id="edge6" class="edge">
<title>2&#45;&gt;1</title>
<path fill="none" stroke="black" d="M168.38,-87.35C180.24,-96.68 193.1,-109.3 200,-124 206.02,-136.83 207.42,-152.45 207.14,-165.72"/>
<polygon fill="black" stroke="black" points="203.66,-165.41 206.59,-175.59 210.65,-165.81 203.66,-165.41"/>
<text text-anchor="middle" x="267.02" y="-127.2" font-family="Times New Roman,serif" font-size="14.00">(2) __main__.m2_rule</text>
</g>
</g>
</svg>
