<?xml version="1.0" encoding="UTF-8" standalone="no"?>
<!DOCTYPE svg PUBLIC "-//W3C//DTD SVG 1.1//EN"
 "http://www.w3.org/Graphics/SVG/1.1/DTD/svg11.dtd">
<!-- Generated by graphviz version 12.2.0 (20241103.1931)
 -->
<!-- Title: root Pages: 1 -->
<svg width="556pt" height="364pt"
 viewBox="0.00 0.00 555.75 364.00" xmlns="http://www.w3.org/2000/svg" xmlns:xlink="http://www.w3.org/1999/xlink">
<g id="graph0" class="graph" transform="scale(1 1) rotate(0) translate(4 360)">
<title>root</title>
<polygon fill="white" stroke="none" points="-4,4 -4,-360 551.75,-360 551.75,4 -4,4"/>
<g id="clust1" class="cluster">
<title>cluster_curriculum</title>
<polygon fill="none" stroke="white" points="8,-261 8,-348 174,-348 174,-261 8,-261"/>
<text text-anchor="middle" x="91" y="-321.2" font-family="Times New Roman,serif" font-size="24.00">My Curriculum</text>
</g>
<g id="clust2" class="cluster">
<title>cluster_TrackStage</title>
<polygon fill="none" stroke="black" points="182,-8 182,-337.5 504,-337.5 504,-8 182,-8"/>
<text text-anchor="middle" x="343" y="-320.2" font-family="Times New Roman,serif" font-size="14.00">Track Stage</text>
</g>
<!-- 0 -->
<g id="node1" class="node">
<title>0</title>
<polygon fill="lightgrey" stroke="black" points="131.62,-305 50.38,-305 50.38,-269 131.62,-269 131.62,-305"/>
<text text-anchor="middle" x="91" y="-281.95" font-family="Times New Roman,serif" font-size="14.00">Track Stage</text>
</g>
<!-- 0_gv1 -->
<g id="node2" class="node">
<title>0_gv1</title>
<polygon fill="#ffea00" stroke="black" points="334.12,-305 189.88,-305 189.88,-269 334.12,-269 334.12,-305"/>
<text text-anchor="middle" x="262" y="-282.73" font-family="Arial" font-size="12.00">__main__.policy_1_rule</text>
</g>
<!-- 1 -->
<g id="node3" class="node">
<title>1</title>
<polygon fill="lightblue" stroke="black" points="334.12,-178.5 189.88,-178.5 189.88,-142.5 334.12,-142.5 334.12,-178.5"/>
<text text-anchor="middle" x="262" y="-156.22" font-family="Arial" font-size="12.00">__main__.policy_2_rule</text>
</g>
<!-- 0_gv1&#45;&gt;1 -->
<g id="edge1" class="edge">
<title>0_gv1&#45;&gt;1</title>
<path fill="none" stroke="black" d="M246.87,-268.86C239.06,-258.86 230.33,-245.57 226.25,-232 221.6,-216.56 228.75,-200.45 237.85,-187.52"/>
<polygon fill="black" stroke="black" points="240.37,-189.98 243.74,-179.93 234.84,-185.68 240.37,-189.98"/>
<text text-anchor="middle" x="288.12" y="-218.7" font-family="Times New Roman,serif" font-size="14.00">(1) __main__.m1_rule</text>
</g>
<!-- 2 -->
<g id="node4" class="node">
<title>2</title>
<polygon fill="lightblue" stroke="black" points="334.12,-52 189.88,-52 189.88,-16 334.12,-16 334.12,-52"/>
<text text-anchor="middle" x="262" y="-29.73" font-family="Arial" font-size="12.00">__main__.policy_3_rule</text>
</g>
<!-- 1&#45;&gt;2 -->
<g id="edge2" class="edge">
<title>1&#45;&gt;2</title>
<path fill="none" stroke="black" d="M246.87,-142.36C239.06,-132.36 230.33,-119.07 226.25,-105.5 221.6,-90.06 228.75,-73.95 237.85,-61.02"/>
<polygon fill="black" stroke="black" points="240.37,-63.48 243.74,-53.43 234.84,-59.18 240.37,-63.48"/>
<text text-anchor="middle" x="288.12" y="-92.2" font-family="Times New Roman,serif" font-size="14.00">(1) __main__.m1_rule</text>
</g>
<!-- 3 -->
<g id="node5" class="node">
<title>3</title>
<polygon fill="#ffea00" stroke="black" points="496.12,-305 351.88,-305 351.88,-269 496.12,-269 496.12,-305"/>
<text text-anchor="middle" x="424" y="-282.73" font-family="Arial" font-size="12.00">__main__.policy_4_rule</text>
</g>
<!-- 4 -->
<g id="node6" class="node">
<title>4</title>
<polygon fill="lightblue" stroke="black" points="496.12,-178.5 351.88,-178.5 351.88,-142.5 496.12,-142.5 496.12,-178.5"/>
<text text-anchor="middle" x="424" y="-156.22" font-family="Arial" font-size="12.00">__main__.policy_5_rule</text>
</g>
<!-- 3&#45;&gt;4 -->
<g id="edge3" class="edge">
<title>3&#45;&gt;4</title>
<path fill="none" stroke="black" d="M424,-268.69C424,-248.34 424,-214.28 424,-190.01"/>
<polygon fill="black" stroke="black" points="427.5,-190.18 424,-180.18 420.5,-190.18 427.5,-190.18"/>
<text text-anchor="middle" x="485.88" y="-218.7" font-family="Times New Roman,serif" font-size="14.00">(1) __main__.m2_rule</text>
</g>
<!-- 5 -->
<g id="node7" class="node">
<title>5</title>
<polygon fill="lightblue" stroke="black" points="496.12,-52 351.88,-52 351.88,-16 496.12,-16 496.12,-52"/>
<text text-anchor="middle" x="424" y="-29.73" font-family="Arial" font-size="12.00">__main__.policy_6_rule</text>
</g>
<!-- 4&#45;&gt;5 -->
<g id="edge4" class="edge">
<title>4&#45;&gt;5</title>
<path fill="none" stroke="black" d="M424,-142.19C424,-121.84 424,-87.78 424,-63.51"/>
<polygon fill="black" stroke="black" points="427.5,-63.68 424,-53.68 420.5,-63.68 427.5,-63.68"/>
<text text-anchor="middle" x="485.88" y="-92.2" font-family="Times New Roman,serif" font-size="14.00">(1) __main__.m2_rule</text>
</g>
</g>
</svg>
