<?xml version="1.0" encoding="UTF-8" standalone="no"?>
<!DOCTYPE svg PUBLIC "-//W3C//DTD SVG 1.1//EN"
 "http://www.w3.org/Graphics/SVG/1.1/DTD/svg11.dtd">
<!-- Generated by graphviz version 12.2.0 (20241103.1931)
 -->
<!-- Title: root Pages: 1 -->
<svg width="836pt" height="364pt"
 viewBox="0.00 0.00 836.00 364.00" xmlns="http://www.w3.org/2000/svg" xmlns:xlink="http://www.w3.org/1999/xlink">
<g id="graph0" class="graph" transform="scale(1 1) rotate(0) translate(4 360)">
<title>root</title>
<polygon fill="white" stroke="none" points="-4,4 -4,-360 832,-360 832,4 -4,4"/>
<g id="clust1" class="cluster">
<title>cluster_curriculum</title>
<polygon fill="none" stroke="white" points="8,-261 8,-348 174,-348 174,-261 8,-261"/>
<text text-anchor="middle" x="91" y="-321.2" font-family="Times New Roman,serif" font-size="24.00">My Curriculum</text>
</g>
<g id="clust2" class="cluster">
<title>cluster_TreeStage</title>
<polygon fill="none" stroke="black" points="182,-8 182,-337.5 820,-337.5 820,-8 182,-8"/>
<text text-anchor="middle" x="501" y="-320.2" font-family="Times New Roman,serif" font-size="14.00">Tree Stage</text>
</g>
<!-- 0 -->
<g id="node1" class="node">
<title>0</title>
<polygon fill="lightgrey" stroke="black" points="128.25,-305 53.75,-305 53.75,-269 128.25,-269 128.25,-305"/>
<text text-anchor="middle" x="91" y="-281.95" font-family="Times New Roman,serif" font-size="14.00">Tree Stage</text>
</g>
<!-- 0_gv1 -->
<g id="node2" class="node">
<title>0_gv1</title>
<polygon fill="#ffea00" stroke="black" points="334.12,-305 189.88,-305 189.88,-269 334.12,-269 334.12,-305"/>
<text text-anchor="middle" x="262" y="-282.73" font-family="Arial" font-size="12.00">__main__.policy_1_rule</text>
</g>
<!-- 1 -->
<g id="node3" class="node">
<title>1</title>
<polygon fill="lightblue" stroke="black" points="439.12,-178.5 294.88,-178.5 294.88,-142.5 439.12,-142.5 439.12,-178.5"/>
<text text-anchor="middle" x="367" y="-156.22" font-family="Arial" font-size="12.00">__main__.policy_4_rule</text>
</g>
<!-- 0_gv1&#45;&gt;1 -->
<g id="edge1" class="edge">
<title>0_gv1&#45;&gt;1</title>
<path fill="none" stroke="black" d="M241.02,-268.65C225.94,-254.04 210.23,-232.81 222.25,-215.5 236.64,-194.77 260.01,-181.98 283.81,-174.1"/>
<polygon fill="black" stroke="black" points="284.72,-177.48 293.29,-171.25 282.71,-170.78 284.72,-177.48"/>
<text text-anchor="middle" x="284.12" y="-218.7" font-family="Times New Roman,serif" font-size="14.00">(1) __main__.m1_rule</text>
</g>
<!-- 5 -->
<g id="node4" class="node">
<title>5</title>
<polygon fill="lightblue" stroke="black" points="520.12,-52 375.88,-52 375.88,-16 520.12,-16 520.12,-52"/>
<text text-anchor="middle" x="448" y="-29.73" font-family="Arial" font-size="12.00">__main__.policy_6_rule</text>
</g>
<!-- 1&#45;&gt;5 -->
<g id="edge2" class="edge">
<title>1&#45;&gt;5</title>
<path fill="none" stroke="black" d="M367.59,-142.09C368.81,-127.05 372.33,-105.25 382.25,-89 389.22,-77.59 399.47,-67.5 409.82,-59.22"/>
<polygon fill="black" stroke="black" points="411.76,-62.14 417.65,-53.34 407.56,-56.55 411.76,-62.14"/>
<text text-anchor="middle" x="444.12" y="-92.2" font-family="Times New Roman,serif" font-size="14.00">(1) __main__.m2_rule</text>
</g>
<!-- 2 -->
<g id="node5" class="node">
<title>2</title>
<polygon fill="#ffea00" stroke="black" points="547.12,-305 402.88,-305 402.88,-269 547.12,-269 547.12,-305"/>
<text text-anchor="middle" x="475" y="-282.73" font-family="Arial" font-size="12.00">__main__.policy_2_rule</text>
</g>
<!-- 2&#45;&gt;1 -->
<g id="edge3" class="edge">
<title>2&#45;&gt;1</title>
<path fill="none" stroke="black" d="M417.06,-268.51C399.46,-260.28 381.97,-248.52 371.25,-232 363.35,-219.83 361.85,-203.84 362.51,-190.17"/>
<polygon fill="black" stroke="black" points="365.98,-190.7 363.41,-180.42 359.01,-190.05 365.98,-190.7"/>
<text text-anchor="middle" x="433.12" y="-218.7" font-family="Times New Roman,serif" font-size="14.00">(1) __main__.m1_rule</text>
</g>
<!-- 3 -->
<g id="node6" class="node">
<title>3</title>
<polygon fill="lightblue" stroke="black" points="601.12,-178.5 456.88,-178.5 456.88,-142.5 601.12,-142.5 601.12,-178.5"/>
<text text-anchor="middle" x="529" y="-156.22" font-family="Arial" font-size="12.00">__main__.policy_5_rule</text>
</g>
<!-- 2&#45;&gt;3 -->
<g id="edge4" class="edge">
<title>2&#45;&gt;3</title>
<path fill="none" stroke="black" d="M482.51,-268.69C491.46,-248.06 506.52,-213.34 517.06,-189.02"/>
<polygon fill="black" stroke="black" points="520.18,-190.62 520.95,-180.05 513.76,-187.83 520.18,-190.62"/>
<text text-anchor="middle" x="567.02" y="-218.7" font-family="Times New Roman,serif" font-size="14.00">(2) __main__.m1_rule</text>
</g>
<!-- 3&#45;&gt;5 -->
<g id="edge5" class="edge">
<title>3&#45;&gt;5</title>
<path fill="none" stroke="black" d="M525.91,-142.21C522.66,-127.26 516.53,-105.49 506,-89 499.08,-78.17 489.49,-68.05 480.1,-59.57"/>
<polygon fill="black" stroke="black" points="482.62,-57.12 472.76,-53.26 478.06,-62.43 482.62,-57.12"/>
<text text-anchor="middle" x="576.19" y="-92.2" font-family="Times New Roman,serif" font-size="14.00">(1) __main__.m2_rule</text>
</g>
<!-- 4 -->
<g id="node7" class="node">
<title>4</title>
<polygon fill="#ffea00" stroke="black" points="760.12,-305 615.88,-305 615.88,-269 760.12,-269 760.12,-305"/>
<text text-anchor="middle" x="688" y="-282.73" font-family="Arial" font-size="12.00">__main__.policy_3_rule</text>
</g>
<!-- 4&#45;&gt;3 -->
<g id="edge6" class="edge">
<title>4&#45;&gt;3</title>
<path fill="none" stroke="black" d="M677.52,-268.62C667.55,-253.19 651.38,-230.78 633,-215.5 617.96,-203 599.55,-192.27 582.42,-183.75"/>
<polygon fill="black" stroke="black" points="584.42,-180.82 573.89,-179.64 581.38,-187.13 584.42,-180.82"/>
<text text-anchor="middle" x="711.41" y="-218.7" font-family="Times New Roman,serif" font-size="14.00">(1) __main__.m1_rule</text>
</g>
</g>
</svg>
