<?xml version="1.0" encoding="UTF-8" standalone="no"?>
<!DOCTYPE svg PUBLIC "-//W3C//DTD SVG 1.1//EN"
 "http://www.w3.org/Graphics/SVG/1.1/DTD/svg11.dtd">
<!-- Generated by graphviz version 12.2.0 (20241103.1931)
 -->
<!-- Title: root Pages: 1 -->
<svg width="1028pt" height="364pt"
 viewBox="0.00 0.00 1028.00 364.00" xmlns="http://www.w3.org/2000/svg" xmlns:xlink="http://www.w3.org/1999/xlink">
<g id="graph0" class="graph" transform="scale(1 1) rotate(0) translate(4 360)">
<title>root</title>
<polygon fill="white" stroke="none" points="-4,4 -4,-360 1024,-360 1024,4 -4,4"/>
<g id="clust1" class="cluster">
<title>cluster_curriculum</title>
<polygon fill="none" stroke="white" points="8,-8 8,-348 252,-348 252,-8 8,-8"/>
<text text-anchor="middle" x="130" y="-321.2" font-family="Times New Roman,serif" font-size="24.00">My Curriculum</text>
</g>
<g id="clust2" class="cluster">
<title>cluster_StageA</title>
<polygon fill="none" stroke="black" points="260,-8 260,-337.5 632,-337.5 632,-8 260,-8"/>
<text text-anchor="middle" x="446" y="-320.2" font-family="Times New Roman,serif" font-size="14.00">StageA</text>
</g>
<g id="clust3" class="cluster">
<title>cluster_StageB</title>
<polygon fill="none" stroke="black" points="640,-8 640,-337.5 1012,-337.5 1012,-8 640,-8"/>
<text text-anchor="middle" x="826" y="-320.2" font-family="Times New Roman,serif" font-size="14.00">StageB</text>
</g>
<!-- 0 -->
<g id="node1" class="node">
<title>0</title>
<polygon fill="lightgrey" stroke="black" points="95.88,-305 40.12,-305 40.12,-269 95.88,-269 95.88,-305"/>
<text text-anchor="middle" x="68" y="-281.95" font-family="Times New Roman,serif" font-size="14.00">StageA</text>
</g>
<!-- 1 -->
<g id="node2" class="node">
<title>1</title>
<polygon fill="lightgrey" stroke="black" points="126.25,-52 27.75,-52 27.75,-16 126.25,-16 126.25,-52"/>
<text text-anchor="middle" x="77" y="-28.95" font-family="Times New Roman,serif" font-size="14.00">GRADUATED</text>
</g>
<!-- 0&#45;&gt;1 -->
<g id="edge1" class="edge">
<title>0&#45;&gt;1</title>
<path fill="none" stroke="black" d="M52.19,-268.63C43.32,-257.07 34,-241.05 34,-224.75 34,-224.75 34,-224.75 34,-96.25 34,-83.22 40.6,-71 48.63,-60.95"/>
<polygon fill="black" stroke="black" points="51.22,-63.3 55.25,-53.51 45.99,-58.65 51.22,-63.3"/>
<text text-anchor="middle" x="102.25" y="-155.45" font-family="Times New Roman,serif" font-size="14.00">(1) __main__.t2_10_rule</text>
</g>
<!-- 2 -->
<g id="node3" class="node">
<title>2</title>
<polygon fill="lightgrey" stroke="black" points="243.5,-178.5 188.5,-178.5 188.5,-142.5 243.5,-142.5 243.5,-178.5"/>
<text text-anchor="middle" x="216" y="-155.45" font-family="Times New Roman,serif" font-size="14.00">StageB</text>
</g>
<!-- 0&#45;&gt;2 -->
<g id="edge2" class="edge">
<title>0&#45;&gt;2</title>
<path fill="none" stroke="black" d="M79.76,-268.64C90.63,-253.44 107.84,-231.35 126.25,-215.5 141.88,-202.04 161.29,-189.9 178.05,-180.56"/>
<polygon fill="black" stroke="black" points="179.63,-183.68 186.76,-175.84 176.3,-177.53 179.63,-183.68"/>
<text text-anchor="middle" x="191.12" y="-218.7" font-family="Times New Roman,serif" font-size="14.00">(2) __main__.t2_5_rule</text>
</g>
<!-- 2&#45;&gt;1 -->
<g id="edge3" class="edge">
<title>2&#45;&gt;1</title>
<path fill="none" stroke="black" d="M188.15,-148.58C167.41,-139.41 139.36,-124.73 119.5,-105.5 106.9,-93.3 96.61,-76.6 89.32,-62.51"/>
<polygon fill="black" stroke="black" points="92.55,-61.16 85,-53.72 86.27,-64.24 92.55,-61.16"/>
<text text-anchor="middle" x="187.75" y="-92.2" font-family="Times New Roman,serif" font-size="14.00">(1) __main__.t2_10_rule</text>
</g>
<!-- 0_gv1 -->
<g id="node4" class="node">
<title>0_gv1</title>
<polygon fill="#ffea00" stroke="black" points="494.5,-305 343.5,-305 343.5,-269 494.5,-269 494.5,-305"/>
<text text-anchor="middle" x="419" y="-282.73" font-family="Arial" font-size="12.00">__main__.init_stage_rule</text>
</g>
<!-- 1_gv1 -->
<g id="node5" class="node">
<title>1_gv1</title>
<polygon fill="lightblue" stroke="black" points="514.62,-52 331.38,-52 331.38,-16 514.62,-16 514.62,-52"/>
<text text-anchor="middle" x="423" y="-29.73" font-family="Arial" font-size="12.00">__main__.stageA_policyB_rule</text>
</g>
<!-- 0_gv1&#45;&gt;1_gv1 -->
<g id="edge4" class="edge">
<title>0_gv1&#45;&gt;1_gv1</title>
<path fill="none" stroke="black" d="M343.18,-277.54C313.31,-269.58 286,-254.24 286,-224.75 286,-224.75 286,-224.75 286,-96.25 286,-74.3 300.84,-60.16 320.76,-51.07"/>
<polygon fill="black" stroke="black" points="321.85,-54.41 329.83,-47.45 319.25,-47.9 321.85,-54.41"/>
<text text-anchor="middle" x="354.25" y="-155.45" font-family="Times New Roman,serif" font-size="14.00">(1) __main__.t1_10_rule</text>
</g>
<!-- 2_gv1 -->
<g id="node6" class="node">
<title>2_gv1</title>
<polygon fill="lightblue" stroke="black" points="623.62,-178.5 440.38,-178.5 440.38,-142.5 623.62,-142.5 623.62,-178.5"/>
<text text-anchor="middle" x="532" y="-156.22" font-family="Arial" font-size="12.00">__main__.stageA_policyA_rule</text>
</g>
<!-- 0_gv1&#45;&gt;2_gv1 -->
<g id="edge5" class="edge">
<title>0_gv1&#45;&gt;2_gv1</title>
<path fill="none" stroke="black" d="M434.71,-268.69C453.94,-247.5 486.66,-211.45 508.79,-187.07"/>
<polygon fill="black" stroke="black" points="511.27,-189.54 515.4,-179.78 506.09,-184.84 511.27,-189.54"/>
<text text-anchor="middle" x="546.95" y="-218.7" font-family="Times New Roman,serif" font-size="14.00">(2) __main__.t1_5_rule</text>
</g>
<!-- 2_gv1&#45;&gt;1_gv1 -->
<g id="edge6" class="edge">
<title>2_gv1&#45;&gt;1_gv1</title>
<path fill="none" stroke="black" d="M516.84,-142.19C498.3,-121 466.73,-84.95 445.39,-60.57"/>
<polygon fill="black" stroke="black" points="448.24,-58.52 439.02,-53.3 442.98,-63.13 448.24,-58.52"/>
<text text-anchor="middle" x="552.1" y="-92.2" font-family="Times New Roman,serif" font-size="14.00">(1) __main__.t1_10_rule</text>
</g>
<!-- 0_gv2 -->
<g id="node7" class="node">
<title>0_gv2</title>
<polygon fill="#ffea00" stroke="black" points="874.5,-305 723.5,-305 723.5,-269 874.5,-269 874.5,-305"/>
<text text-anchor="middle" x="799" y="-282.73" font-family="Arial" font-size="12.00">__main__.init_stage_rule</text>
</g>
<!-- 1_gv2 -->
<g id="node8" class="node">
<title>1_gv2</title>
<polygon fill="lightblue" stroke="black" points="894.62,-52 711.38,-52 711.38,-16 894.62,-16 894.62,-52"/>
<text text-anchor="middle" x="803" y="-29.73" font-family="Arial" font-size="12.00">__main__.stageB_policyB_rule</text>
</g>
<!-- 0_gv2&#45;&gt;1_gv2 -->
<g id="edge7" class="edge">
<title>0_gv2&#45;&gt;1_gv2</title>
<path fill="none" stroke="black" d="M723.18,-277.54C693.31,-269.58 666,-254.24 666,-224.75 666,-224.75 666,-224.75 666,-96.25 666,-74.3 680.84,-60.16 700.76,-51.07"/>
<polygon fill="black" stroke="black" points="701.85,-54.41 709.83,-47.45 699.25,-47.9 701.85,-54.41"/>
<text text-anchor="middle" x="734.25" y="-155.45" font-family="Times New Roman,serif" font-size="14.00">(1) __main__.t3_10_rule</text>
</g>
<!-- 2_gv2 -->
<g id="node9" class="node">
<title>2_gv2</title>
<polygon fill="lightblue" stroke="black" points="1003.62,-178.5 820.38,-178.5 820.38,-142.5 1003.62,-142.5 1003.62,-178.5"/>
<text text-anchor="middle" x="912" y="-156.22" font-family="Arial" font-size="12.00">__main__.stageB_policyA_rule</text>
</g>
<!-- 0_gv2&#45;&gt;2_gv2 -->
<g id="edge8" class="edge">
<title>0_gv2&#45;&gt;2_gv2</title>
<path fill="none" stroke="black" d="M814.71,-268.69C833.94,-247.5 866.66,-211.45 888.79,-187.07"/>
<polygon fill="black" stroke="black" points="891.27,-189.54 895.4,-179.78 886.09,-184.84 891.27,-189.54"/>
<text text-anchor="middle" x="926.95" y="-218.7" font-family="Times New Roman,serif" font-size="14.00">(2) __main__.t3_5_rule</text>
</g>
<!-- 2_gv2&#45;&gt;1_gv2 -->
<g id="edge9" class="edge">
<title>2_gv2&#45;&gt;1_gv2</title>
<path fill="none" stroke="black" d="M896.84,-142.19C878.3,-121 846.73,-84.95 825.39,-60.57"/>
<polygon fill="black" stroke="black" points="828.24,-58.52 819.02,-53.3 822.98,-63.13 828.24,-58.52"/>
<text text-anchor="middle" x="932.1" y="-92.2" font-family="Times New Roman,serif" font-size="14.00">(1) __main__.t3_10_rule</text>
</g>
</g>
</svg>
